<svg height="150" preserveAspectRatio="none" viewBox="0 0 150 150" width="150" xmlns="http://www.w3.org/2000/svg"><path d="m67.95 112-7.1-6.1q-.3-.2-.6-.35-1.55-.95-3.2-1.75-.25-.1-.45-.2-.15-.05-.2-.1-3.4-1.4-7.65-1.4-8.3 0-14.1 5.8-5.85 5.85-5.85 14.1 0 8.25 5.85 14.05 0 .05.05.05 4.85 4.9 11.5 5.7.05 0 .1.05 1.2.1 2.45.1.6 0 1.15 0 .55 0 1.15-.1l4.85-1.05 4-2.05 32.45-24.05q.75-.45 1.55-.85.2-.05.4-.15 1.5-.6 3.45-.6 3.7 0 6.35 2.6h.05q2.55 2.65 2.55 6.3 0 3.7-2.6 6.3-2.65 2.65-6.35 2.65-.3 0-.6 0l-2.7-.55q-.1-.05-.2-.1-.05-.05-.1-.05-.2-.1-.4-.15-.35-.25-.7-.4l-.05-.05q-.05-.05-.1-.05l-4.45-2.95-7.55 6.75 6 5.45q.6.35 1.25.7.15.05.25.1.4.2.8.4.45.3 1 .5.35.15.75.25.4.2.85.3l3.65.75q.6.1 1.15.1.55 0 1.15 0 8.3 0 14.15-5.85 3.8-3.8 5.1-8.6.7-2.6.7-5.5 0-2.85-.7-5.4-1.3-4.85-5.1-8.65v-.05q-5.9-5.8-14.15-5.8-4.25 0-7.6 1.4-.1.05-.2.1-.25.05-.55.2-1.7.85-3.2 1.8-.2.1-.4.25l-32.8 24.35-3.6.75q-.35 0-.65 0-.65 0-1.3-.05h.1q-2.95-.4-5.05-2.55l-.05-.05q-2.65-2.6-2.65-6.3 0-3.65 2.65-6.3 2.6-2.6 6.3-2.6 1.9 0 3.4.6.25.1.45.15.85.45 1.7.95l5.05 3.9zm26.55 18.7-.05-.05.15.1zm-.35-.35q-.15-.1-.25-.15l.45.2zm-7.3 8.25-.15-.1.1.05zm15.55-41.05v-39.9h-58.45v39.9zm-11-28.9v17.9h-36.45v-17.9zm3.85-38.5q0-9.3-6.65-15.9v-.05q-6.6-6.6-15.9-6.6-9.4 0-16 6.6v.05q-6.55 6.6-6.55 15.9 0 9.3 6.55 15.95 6.6 6.6 16 6.6 9.3 0 15.9-6.6 6.65-6.65 6.65-15.95m-14.45-8.15h.05q3.4 3.4 3.4 8.15 0 4.75-3.4 8.15l-.05.05q-3.35 3.35-8.1 3.35-4.8 0-8.2-3.4v.05q-3.35-3.4-3.35-8.2 0-4.8 3.35-8.15 3.4-3.4 8.2-3.4 4.75 0 8.1 3.4z"/></svg>