
<svg xmlns="http://www.w3.org/2000/svg" version="1.1" xmlns:xlink="http://www.w3.org/1999/xlink" preserveAspectRatio="none" x="0px" y="0px" width="400px" height="150px" viewBox="0 0 400 150">
<defs>
<g id="Layer0_0_FILL">
<path fill="#000000" stroke="none" d="
M 66.2 105.6
Q 66 105.7 65.8 105.85
L 33 130.2 29.4 130.95
Q 29.05 130.95 28.75 130.95 28.1 130.95 27.45 130.9
L 27.55 130.9
Q 24.6 130.5 22.5 128.35
L 22.45 128.3
Q 19.8 125.7 19.8 122 19.8 118.35 22.45 115.7 25.05 113.1 28.75 113.1 30.65 113.1 32.15 113.7 32.4 113.8 32.6 113.85 33.45 114.3 34.3 114.8
L 39.35 118.7 47.95 112 40.85 105.9
Q 40.55 105.7 40.25 105.55 38.7 104.6 37.05 103.8 36.8 103.7 36.6 103.6 36.45 103.55 36.4 103.5 33 102.1 28.75 102.1 20.45 102.1 14.65 107.9 8.8 113.75 8.8 122 8.8 130.25 14.65 136.05 14.65 136.1 14.7 136.1 19.55 141 26.2 141.8 26.25 141.8 26.3 141.85 27.5 141.95 28.75 141.95 29.35 141.95 29.9 141.95 30.45 141.95 31.05 141.85
L 35.9 140.8 39.9 138.75 72.35 114.7
Q 73.1 114.25 73.9 113.85 74.1 113.8 74.3 113.7 75.8 113.1 77.75 113.1 81.45 113.1 84.1 115.7
L 84.15 115.7
Q 86.7 118.35 86.7 122 86.7 125.7 84.1 128.3 81.45 130.95 77.75 130.95 77.45 130.95 77.15 130.95
L 74.45 130.4
Q 74.35 130.35 74.25 130.3 74.2 130.25 74.15 130.25 73.95 130.15 73.75 130.1 73.4 129.85 73.05 129.7
L 73 129.65
Q 72.95 129.6 72.9 129.6
L 68.45 126.65 60.9 133.4 66.9 138.85
Q 67.5 139.2 68.15 139.55 68.3 139.6 68.4 139.65 68.8 139.85 69.2 140.05 69.65 140.35 70.2 140.55 70.55 140.7 70.95 140.8 71.35 141 71.8 141.1
L 75.45 141.85
Q 76.05 141.95 76.6 141.95 77.15 141.95 77.75 141.95 86.05 141.95 91.9 136.1 95.7 132.3 97 127.5 97.7 124.9 97.7 122 97.7 119.15 97 116.6 95.7 111.75 91.9 107.95
L 91.9 107.9
Q 86 102.1 77.75 102.1 73.5 102.1 70.15 103.5 70.05 103.55 69.95 103.6 69.7 103.65 69.4 103.8 67.7 104.65 66.2 105.6
M 74.5 130.7
L 74.45 130.65 74.6 130.75 74.5 130.7
M 74.35 130.4
L 74.15 130.35
Q 74 130.25 73.9 130.2
L 74.35 130.4
M 66.7 138.5
L 66.8 138.55 66.85 138.6 66.7 138.5
M 68.6 14.25
L 68.6 14.2
Q 62 7.6 52.7 7.6 43.3 7.6 36.7 14.2
L 36.7 14.25
Q 30.15 20.85 30.15 30.15 30.15 39.45 36.7 46.1 43.3 52.7 52.7 52.7 62 52.7 68.6 46.1 75.25 39.45 75.25 30.15 75.25 20.85 68.6 14.25
M 60.8 22
L 60.85 22
Q 64.25 25.4 64.25 30.15 64.25 34.9 60.85 38.3
L 60.8 38.35
Q 57.45 41.7 52.7 41.7 47.9 41.7 44.5 38.3
L 44.5 38.35
Q 41.15 34.95 41.15 30.15 41.15 25.35 44.5 22 47.9 18.6 52.7 18.6 57.45 18.6 60.8 22
M 153.9 59.9
L 158.45 54.15 149.65 47.45 145.65 52.5
Q 142.25 50.6 136.85 50.6 127.95 50.6 122.05 56.25
L 122 56.25
Q 115.85 62.1 115.85 71.6 115.85 81.25 121.5 86.85
L 121.5 86.9
Q 127.15 92.4 136.85 92.4 140.55 92.4 143.15 94.2 145.85 96.05 145.85 99.35 145.85 102.8 143.35 104.85 143.25 104.95 143.15 105 140.65 106.8 136.85 106.8 133.2 106.8 130.65 105 130.45 104.85 130.25 104.7
L 130.25 104.75
Q 127.55 102.65 127.55 99.35
L 127.55 98.35 115.85 98.35 115.85 99.35
Q 115.85 102.4 116.65 105 118.05 109.55 121.9 112.9 127.75 117.95 136.85 117.95 145.95 117.95 151.65 112.95 155.5 109.7 156.9 105 157.65 102.4 157.65 99.35 157.65 90.7 150.55 86.3 154.05 84.15 155.95 80.1 157.8 76.2 157.8 71.6 157.8 64.65 153.9 59.9
M 143.4 64.15
Q 146.1 67.05 146.1 71.6 146.1 76.1 143.4 78.9 140.75 81.55 136.85 81.55 132.9 81.55 130.25 78.95
L 130.3 78.95
Q 127.55 76.15 127.55 71.6 127.55 67 130.3 64.15 132.9 61.45 136.85 61.45 140.7 61.45 143.4 64.15
M 82.4 97.55
L 82.4 57.65 23.95 57.65 23.95 97.55 82.4 97.55
M 34.95 86.55
L 34.95 68.65 71.4 68.65 71.4 86.55 34.95 86.55
M 182.2 50.7
Q 172.25 50.7 166.2 56.8 160.25 62.75 160.25 72.3 160.25 82.3 166.3 88.25 172.35 94.35 182.95 94.35 194.15 94.35 200.65 87.65
L 201.35 86.95 193.65 79.4 192.95 80.1
Q 191.45 81.6 188.55 82.5 185.8 83.45 183.1 83.45 178.4 83.45 175.5 81.3 173.25 79.65 172.55 77.05
L 203.05 77.05 203.1 76.15
Q 204.3 63.8 198.45 57.1 192.9 50.7 182.2 50.7
M 182.55 61.3
Q 190.1 61.3 191.55 66.95
L 172.95 66.95
Q 175.25 61.3 182.55 61.3
M 295.6 93.3
L 307.35 93.3 307.35 51.7 295.6 51.7 295.6 93.3
M 249.7 76.15
Q 250.9 63.8 245.05 57.1 239.5 50.7 228.8 50.7 218.85 50.7 212.8 56.8 206.85 62.75 206.85 72.3 206.85 82.3 212.9 88.25 218.95 94.35 229.55 94.35 240.75 94.35 247.25 87.65
L 247.95 86.95 240.25 79.4 239.55 80.1
Q 238.05 81.6 235.15 82.5 232.4 83.45 229.7 83.45 225 83.45 222.1 81.3 219.85 79.65 219.15 77.05
L 249.65 77.05 249.7 76.15
M 229.15 61.3
Q 236.7 61.3 238.15 66.95
L 219.55 66.95
Q 221.85 61.3 229.15 61.3
M 265.95 35.35
L 254.15 35.35 254.15 93.3 265.95 93.3 265.95 77.15 279.9 93.3 293.1 93.3 293.1 91.25 275.15 71.4 290.9 53.85 290.9 51.85 277.75 51.85 265.95 65.95 265.95 35.35
M 301.5 35.05
Q 298.75 35.05 296.85 36.7 294.7 38.55 294.7 41.75 294.7 44.95 296.85 46.75 298.75 48.45 301.5 48.45 304.25 48.45 306.15 46.75
L 306.1 46.75
Q 308.25 44.95 308.25 41.75 308.25 38.55 306.15 36.7
L 306.1 36.7
Q 304.25 35.05 301.5 35.05
M 343.05 51.85
L 359.2 91.7 351.4 109.8 364.25 109.8 389.25 51.85 376.25 51.85 365.7 78.05 356.6 51.85 343.05 51.85
M 340.8 51.95
L 329.9 51.95 329.9 40.65 318.15 41.85 318.15 51.95 310.8 51.95 310.8 62.3 318.15 62.3 318.15 78.4
Q 318.15 86.05 322.3 90.1
L 322.3 90.15
Q 326.3 94.05 333.35 93.75 337.65 93.65 341.8 92.05
L 342.65 91.7 339.25 81.35 338.2 81.9
Q 336.05 83 333.95 83 329.85 82.95 329.85 78.4
L 329.85 62.3 340.8 62.3 340.8 51.95 Z"/>
</g>
</defs>

<g transform="matrix( 1, 0, 0, 1, 0,0) ">
<use xlink:href="#Layer0_0_FILL"/>
</g>
</svg>
