<svg height="150" preserveAspectRatio="none" viewBox="0 0 400 150" width="400" xmlns="http://www.w3.org/2000/svg"><path d="m66.2 105.6q-.2.1-.4.25l-32.8 24.35-3.6.75q-.35 0-.65 0-.65 0-1.3-.05h.1q-2.95-.4-5.05-2.55l-.05-.05q-2.65-2.6-2.65-6.3 0-3.65 2.65-6.3 2.6-2.6 6.3-2.6 1.9 0 3.4.6.25.1.45.15.85.45 1.7.95l5.05 3.9 8.6-6.7-7.1-6.1q-.3-.2-.6-.35-1.55-.95-3.2-1.75-.25-.1-.45-.2-.15-.05-.2-.1-3.4-1.4-7.65-1.4-8.3 0-14.1 5.8-5.85 5.85-5.85 14.1 0 8.25 5.85 14.05 0 .05.05.05 4.85 4.9 11.5 5.7.05 0 .1.05 1.2.1 2.45.1.6 0 1.15 0 .55 0 1.15-.1l4.85-1.05 4-2.05 32.45-24.05q.75-.45 1.55-.85.2-.05.4-.15 1.5-.6 3.45-.6 3.7 0 6.35 2.6h.05q2.55 2.65 2.55 6.3 0 3.7-2.6 6.3-2.65 2.65-6.35 2.65-.3 0-.6 0l-2.7-.55q-.1-.05-.2-.1-.05-.05-.1-.05-.2-.1-.4-.15-.35-.25-.7-.4l-.05-.05q-.05-.05-.1-.05l-4.45-2.95-7.55 6.75 6 5.45q.6.35 1.25.7.15.05.25.1.4.2.8.4.45.3 1 .5.35.15.75.25.4.2.85.3l3.65.75q.6.1 1.15.1.55 0 1.15 0 8.3 0 14.15-5.85 3.8-3.8 5.1-8.6.7-2.6.7-5.5 0-2.85-.7-5.4-1.3-4.85-5.1-8.65v-.05q-5.9-5.8-14.15-5.8-4.25 0-7.6 1.4-.1.05-.2.1-.25.05-.55.2-1.7.85-3.2 1.8m8.3 25.1-.05-.05.15.1zm-.15-.3-.2-.05q-.15-.1-.25-.15zm-7.65 8.1.1.05.05.05zm1.9-124.25v-.05q-6.6-6.6-15.9-6.6-9.4 0-16 6.6v.05q-6.55 6.6-6.55 15.9 0 9.3 6.55 15.95 6.6 6.6 16 6.6 9.3 0 15.9-6.6 6.65-6.65 6.65-15.95 0-9.3-6.65-15.9m-7.8 7.75h.05q3.4 3.4 3.4 8.15 0 4.75-3.4 8.15l-.05.05q-3.35 3.35-8.1 3.35-4.8 0-8.2-3.4v.05q-3.35-3.4-3.35-8.2 0-4.8 3.35-8.15 3.4-3.4 8.2-3.4 4.75 0 8.1 3.4m93.1 37.9 4.55-5.75-8.8-6.7-4 5.05q-3.4-1.9-8.8-1.9-8.9 0-14.8 5.65h-.05q-6.15 5.85-6.15 15.35 0 9.65 5.65 15.25v.05q5.65 5.5 15.35 5.5 3.7 0 6.3 1.8 2.7 1.85 2.7 5.15 0 3.45-2.5 5.5-.1.1-.2.15-2.5 1.8-6.3 1.8-3.65 0-6.2-1.8-.2-.15-.4-.3v.05q-2.7-2.1-2.7-5.4v-1h-11.7v1q0 3.05.8 5.65 1.4 4.55 5.25 7.9 5.85 5.05 14.95 5.05 9.1 0 14.8-5 3.85-3.25 5.25-7.95.75-2.6.75-5.65 0-8.65-7.1-13.05 3.5-2.15 5.4-6.2 1.85-3.9 1.85-8.5 0-6.95-3.9-11.7m-10.5 4.25q2.7 2.9 2.7 7.45 0 4.5-2.7 7.3-2.65 2.65-6.55 2.65-3.95 0-6.6-2.6h.05q-2.75-2.8-2.75-7.35 0-4.6 2.75-7.45 2.6-2.7 6.55-2.7 3.85 0 6.55 2.7m-61 33.4v-39.9h-58.45v39.9zm-47.45-11v-17.9h36.45v17.9zm147.25-35.85q-9.95 0-16 6.1-5.95 5.95-5.95 15.5 0 10 6.05 15.95 6.05 6.1 16.65 6.1 11.2 0 17.7-6.7l.7-.7-7.7-7.55-.7.7q-1.5 1.5-4.4 2.4-2.75.95-5.45.95-4.7 0-7.6-2.15-2.25-1.65-2.95-4.25h30.5l.05-.9q1.2-12.35-4.65-19.05-5.55-6.4-16.25-6.4m.35 10.6q7.55 0 9 5.65h-18.6q2.3-5.65 9.6-5.65m113.05 32h11.75v-41.6h-11.75zm-45.9-17.15q1.2-12.35-4.65-19.05-5.55-6.4-16.25-6.4-9.95 0-16 6.1-5.95 5.95-5.95 15.5 0 10 6.05 15.95 6.05 6.1 16.65 6.1 11.2 0 17.7-6.7l.7-.7-7.7-7.55-.7.7q-1.5 1.5-4.4 2.4-2.75.95-5.45.95-4.7 0-7.6-2.15-2.25-1.65-2.95-4.25h30.5zm-20.55-14.85q7.55 0 9 5.65h-18.6q2.3-5.65 9.6-5.65m36.8-25.95h-11.8v57.95h11.8v-16.15l13.95 16.15h13.2v-2.05l-17.95-19.85 15.75-17.55v-2h-13.15l-11.8 14.1zm35.55-.3q-2.75 0-4.65 1.65-2.15 1.85-2.15 5.05 0 3.2 2.15 5 1.9 1.7 4.65 1.7 2.75 0 4.65-1.7h-.05q2.15-1.8 2.15-5 0-3.2-2.1-5.05h-.05q-1.85-1.65-4.6-1.65m41.55 16.8 16.15 39.85-7.8 18.1h12.85l25-57.95h-13l-10.55 26.2-9.1-26.2zm-2.25.1h-10.9v-11.3l-11.75 1.2v10.1h-7.35v10.35h7.35v16.1q0 7.65 4.15 11.7v.05q4 3.9 11.05 3.6 4.3-.1 8.45-1.7l.85-.35-3.4-10.35-1.05.55q-2.15 1.1-4.25 1.1-4.1-.05-4.1-4.6v-16.1h10.95z"/></svg>